<mxfile host="app.diagrams.net" agent="Mozilla/5.0 (Windows NT 10.0; Win64; x64) AppleWebKit/537.36 (KHTML, like Gecko) Chrome/126.0.0.0 Safari/537.36 Edg/126.0.0.0" version="24.8.3">
  <diagram name="第 1 页" id="RNzkRPrkngIkkw-ATnGN">
    <mxGraphModel dx="1213" dy="772" grid="0" gridSize="10" guides="1" tooltips="1" connect="1" arrows="1" fold="1" page="0" pageScale="1" pageWidth="2000" pageHeight="2000" math="0" shadow="0">
      <root>
        <mxCell id="0" />
        <mxCell id="1" parent="0" />
        <mxCell id="MM2uD25ACLaoCfSQfWXC-31" value="" style="rounded=0;whiteSpace=wrap;html=1;fillColor=#fff2cc;strokeColor=#d6b656;" vertex="1" parent="1">
          <mxGeometry x="103" y="300" width="888" height="365" as="geometry" />
        </mxCell>
        <mxCell id="MM2uD25ACLaoCfSQfWXC-8" value="" style="rounded=0;whiteSpace=wrap;html=1;fillColor=#dae8fc;strokeColor=#6c8ebf;" vertex="1" parent="1">
          <mxGeometry x="108" y="131" width="293" height="131" as="geometry" />
        </mxCell>
        <mxCell id="MM2uD25ACLaoCfSQfWXC-3" style="edgeStyle=orthogonalEdgeStyle;rounded=0;orthogonalLoop=1;jettySize=auto;html=1;entryX=0;entryY=0.5;entryDx=0;entryDy=0;" edge="1" parent="1" source="MM2uD25ACLaoCfSQfWXC-1" target="MM2uD25ACLaoCfSQfWXC-2">
          <mxGeometry relative="1" as="geometry" />
        </mxCell>
        <mxCell id="MM2uD25ACLaoCfSQfWXC-4" value="注册" style="edgeLabel;html=1;align=center;verticalAlign=middle;resizable=0;points=[];" vertex="1" connectable="0" parent="MM2uD25ACLaoCfSQfWXC-3">
          <mxGeometry x="-0.119" y="1" relative="1" as="geometry">
            <mxPoint as="offset" />
          </mxGeometry>
        </mxCell>
        <mxCell id="MM2uD25ACLaoCfSQfWXC-1" value="用户" style="shape=umlActor;verticalLabelPosition=bottom;verticalAlign=top;html=1;outlineConnect=0;" vertex="1" parent="1">
          <mxGeometry x="148" y="172" width="30" height="60" as="geometry" />
        </mxCell>
        <mxCell id="MM2uD25ACLaoCfSQfWXC-2" value="roleList&lt;div style=&quot;font-size: 14px;&quot;&gt;permissionList放入redis&lt;/div&gt;" style="rounded=1;whiteSpace=wrap;html=1;arcSize=19;fontSize=14;" vertex="1" parent="1">
          <mxGeometry x="262" y="172" width="120" height="60" as="geometry" />
        </mxCell>
        <mxCell id="MM2uD25ACLaoCfSQfWXC-23" style="rounded=0;orthogonalLoop=1;jettySize=auto;html=1;exitX=1;exitY=0.5;exitDx=0;exitDy=0;entryX=0;entryY=0.5;entryDx=0;entryDy=0;" edge="1" parent="1" source="MM2uD25ACLaoCfSQfWXC-7" target="MM2uD25ACLaoCfSQfWXC-12">
          <mxGeometry relative="1" as="geometry" />
        </mxCell>
        <mxCell id="MM2uD25ACLaoCfSQfWXC-24" style="rounded=0;orthogonalLoop=1;jettySize=auto;html=1;exitX=1;exitY=0.5;exitDx=0;exitDy=0;entryX=0;entryY=0.5;entryDx=0;entryDy=0;" edge="1" parent="1" source="MM2uD25ACLaoCfSQfWXC-7" target="MM2uD25ACLaoCfSQfWXC-11">
          <mxGeometry relative="1" as="geometry" />
        </mxCell>
        <mxCell id="MM2uD25ACLaoCfSQfWXC-25" style="rounded=0;orthogonalLoop=1;jettySize=auto;html=1;exitX=1;exitY=0.5;exitDx=0;exitDy=0;entryX=0;entryY=0.5;entryDx=0;entryDy=0;" edge="1" parent="1" source="MM2uD25ACLaoCfSQfWXC-7" target="MM2uD25ACLaoCfSQfWXC-22">
          <mxGeometry relative="1" as="geometry" />
        </mxCell>
        <mxCell id="MM2uD25ACLaoCfSQfWXC-7" value="网关" style="rounded=1;whiteSpace=wrap;html=1;fontSize=17;" vertex="1" parent="1">
          <mxGeometry x="128" y="436" width="120" height="60" as="geometry" />
        </mxCell>
        <mxCell id="MM2uD25ACLaoCfSQfWXC-9" value="鉴权模块" style="text;html=1;align=center;verticalAlign=middle;whiteSpace=wrap;rounded=0;fontSize=16;" vertex="1" parent="1">
          <mxGeometry x="178" y="135" width="87" height="30" as="geometry" />
        </mxCell>
        <mxCell id="MM2uD25ACLaoCfSQfWXC-11" value="权限认证路由拦截" style="rounded=1;whiteSpace=wrap;html=1;" vertex="1" parent="1">
          <mxGeometry x="445" y="428" width="120" height="60" as="geometry" />
        </mxCell>
        <mxCell id="MM2uD25ACLaoCfSQfWXC-17" value="" style="edgeStyle=orthogonalEdgeStyle;rounded=0;orthogonalLoop=1;jettySize=auto;html=1;" edge="1" parent="1" source="MM2uD25ACLaoCfSQfWXC-12" target="MM2uD25ACLaoCfSQfWXC-16">
          <mxGeometry relative="1" as="geometry" />
        </mxCell>
        <mxCell id="MM2uD25ACLaoCfSQfWXC-12" value="自定义权限验证接口" style="rounded=1;whiteSpace=wrap;html=1;" vertex="1" parent="1">
          <mxGeometry x="442" y="319" width="120" height="60" as="geometry" />
        </mxCell>
        <mxCell id="MM2uD25ACLaoCfSQfWXC-18" style="rounded=0;orthogonalLoop=1;jettySize=auto;html=1;exitX=0.5;exitY=0;exitDx=0;exitDy=0;entryX=1;entryY=0.5;entryDx=0;entryDy=0;" edge="1" parent="1" source="MM2uD25ACLaoCfSQfWXC-16" target="MM2uD25ACLaoCfSQfWXC-2">
          <mxGeometry relative="1" as="geometry" />
        </mxCell>
        <mxCell id="MM2uD25ACLaoCfSQfWXC-32" value="获取" style="edgeLabel;html=1;align=center;verticalAlign=middle;resizable=0;points=[];" vertex="1" connectable="0" parent="MM2uD25ACLaoCfSQfWXC-18">
          <mxGeometry x="0.2294" y="-1" relative="1" as="geometry">
            <mxPoint as="offset" />
          </mxGeometry>
        </mxCell>
        <mxCell id="MM2uD25ACLaoCfSQfWXC-19" style="edgeStyle=orthogonalEdgeStyle;rounded=0;orthogonalLoop=1;jettySize=auto;html=1;exitX=1;exitY=0.5;exitDx=0;exitDy=0;" edge="1" parent="1" source="MM2uD25ACLaoCfSQfWXC-16">
          <mxGeometry relative="1" as="geometry">
            <mxPoint x="830.3333129882812" y="349" as="targetPoint" />
          </mxGeometry>
        </mxCell>
        <mxCell id="MM2uD25ACLaoCfSQfWXC-20" value="成功" style="edgeLabel;html=1;align=center;verticalAlign=middle;resizable=0;points=[];" vertex="1" connectable="0" parent="MM2uD25ACLaoCfSQfWXC-19">
          <mxGeometry x="-0.4246" relative="1" as="geometry">
            <mxPoint as="offset" />
          </mxGeometry>
        </mxCell>
        <mxCell id="MM2uD25ACLaoCfSQfWXC-16" value="判断redis有没" style="rhombus;whiteSpace=wrap;html=1;rounded=1;" vertex="1" parent="1">
          <mxGeometry x="666" y="324.5" width="93" height="49" as="geometry" />
        </mxCell>
        <mxCell id="MM2uD25ACLaoCfSQfWXC-21" value="放行" style="rounded=1;whiteSpace=wrap;html=1;" vertex="1" parent="1">
          <mxGeometry x="830" y="321" width="120" height="60" as="geometry" />
        </mxCell>
        <mxCell id="MM2uD25ACLaoCfSQfWXC-29" style="rounded=0;orthogonalLoop=1;jettySize=auto;html=1;exitX=1;exitY=0.5;exitDx=0;exitDy=0;entryX=0;entryY=0.5;entryDx=0;entryDy=0;" edge="1" parent="1" source="MM2uD25ACLaoCfSQfWXC-22" target="MM2uD25ACLaoCfSQfWXC-26">
          <mxGeometry relative="1" as="geometry" />
        </mxCell>
        <mxCell id="MM2uD25ACLaoCfSQfWXC-30" style="edgeStyle=orthogonalEdgeStyle;rounded=0;orthogonalLoop=1;jettySize=auto;html=1;exitX=1;exitY=0.5;exitDx=0;exitDy=0;entryX=0;entryY=0.5;entryDx=0;entryDy=0;curved=1;" edge="1" parent="1" source="MM2uD25ACLaoCfSQfWXC-22" target="MM2uD25ACLaoCfSQfWXC-27">
          <mxGeometry relative="1" as="geometry" />
        </mxCell>
        <mxCell id="MM2uD25ACLaoCfSQfWXC-22" value="登录拦截器" style="rounded=1;whiteSpace=wrap;html=1;" vertex="1" parent="1">
          <mxGeometry x="445" y="537" width="120" height="60" as="geometry" />
        </mxCell>
        <mxCell id="MM2uD25ACLaoCfSQfWXC-26" value="将loginId写入请求头" style="rounded=1;whiteSpace=wrap;html=1;" vertex="1" parent="1">
          <mxGeometry x="657" y="518" width="118" height="50" as="geometry" />
        </mxCell>
        <mxCell id="MM2uD25ACLaoCfSQfWXC-27" value="分布式锁限制并发登录(解决分布式会话数据不一致的问题)" style="rounded=1;whiteSpace=wrap;html=1;" vertex="1" parent="1">
          <mxGeometry x="657" y="595" width="118" height="50" as="geometry" />
        </mxCell>
      </root>
    </mxGraphModel>
  </diagram>
</mxfile>
